<svg viewBox="0 0 1024 1024" xmlns="http://www.w3.org/2000/svg"><path d="M508.784 449.96c-24.003 11.18-48.31 25.674-72.133 43.11 22.442-32.53 47.493-58.012 73.402-76.778l27.18-271.844c11.906-55.18-57.034-79.69-145.858-68.53h.005c-69.085 8.68-150.046 38.63-214.47 94.45l66.83 379.773 3.967 121.142 116.998 16.885 33.498-78.006 46.518 82.623c160.062 18.85 282.558-2.402 343.51-43.52 12.164-125.97-86.014-283.128-279.445-199.302zm330.62 203.593c10.84 6.508 16.718 13.45 16.718 20.657 0 37.11-155.22 67.193-346.687 67.193S162.748 711.32 162.748 674.21c0-7.242 5.935-14.214 16.875-20.75-44.516 13.278-70.606 29.376-70.606 46.73 0 45.503 179.242 82.392 400.34 82.392s400.338-36.887 400.338-82.393c0-17.314-25.968-33.377-70.292-46.637zm-674.198 4.535h-94.85l50.264 22.353c9.533-7.97 24.7-15.483 44.587-22.352zm-56.188 42.1c0-7.466 4.844-14.7 13.897-21.58l-91.203 52.79 91.21-9.63c-9.048-6.878-13.904-14.11-13.904-21.58zm31.116 31.897L81.846 821.01l129.345-65.846c-29.515-6.777-53.666-14.563-71.056-23.08zm97.566 28.617L216.27 894.04l122.614-119.286c-37.23-3.612-71.312-8.37-101.184-14.052zm134.48 16.915l23.31 154.804 101.68-149.88c-43.792-.27-85.82-1.984-124.99-4.924zm151.694 4.904l112.24 153.3 13.78-158.464c-39.43 3.044-81.81 4.84-126.02 5.165zm159.22-8.08L804.46 894.048l-21.488-133.72c-29.47 5.68-63.102 10.46-99.88 14.112zm197.003-43.12c-17.226 8.68-41.43 16.62-71.19 23.52l129.97 66.167-58.78-89.686zm29.6-31.13c0 7.4-4.77 14.57-13.66 21.393l92.98 9.816-108.47-62.78-.115.605c18.86 9.558 29.265 20.01 29.265 30.964zm-56.19-42.102c20.404 7.048 35.85 14.774 45.33 22.977l51.667-22.977h-96.996z" fill="#ffffff"/></svg>